<?xml version="1.0" encoding="UTF-8" standalone="no"?>
<!DOCTYPE svg PUBLIC "-//W3C//DTD SVG 1.1//EN"
 "http://www.w3.org/Graphics/SVG/1.1/DTD/svg11.dtd">
<!-- Generated by graphviz version 2.38.0 (20140413.2041)
 -->
<!-- Title: G Pages: 1 -->
<svg width="180pt" height="188pt"
 viewBox="0.00 0.00 180.09 188.00" xmlns="http://www.w3.org/2000/svg" xmlns:xlink="http://www.w3.org/1999/xlink">
<g id="graph0" class="graph" transform="scale(1 1) rotate(0) translate(4 184)">
<title>G</title><style>.edge>path:hover{stroke-width:8}</style>
<polygon fill="white" stroke="none" points="-4,4 -4,-184 176.095,-184 176.095,4 -4,4"/>
<!-- friendly_traceback -->
<g id="node1" class="node"><title>friendly_traceback</title><style>.edge>path:hover{stroke-width:8}</style>
<ellipse fill="#4747c2" stroke="black" cx="98.5116" cy="-162" rx="55.8461" ry="18"/>
<text text-anchor="middle" x="98.5116" y="-159.5" font-family="Helvetica,sans-Serif" font-size="10.00" fill="#ffffff">friendly_traceback</text>
</g>
<!-- custom_exception -->
<g id="node2" class="node"><title>custom_exception</title><style>.edge>path:hover{stroke-width:8}</style>
<ellipse fill="#b34c4c" stroke="black" cx="56.5116" cy="-90" rx="56.5233" ry="18"/>
<text text-anchor="middle" x="56.5116" y="-87.5" font-family="Helvetica,sans-Serif" font-size="10.00" fill="#ffffff">custom_exception</text>
</g>
<!-- friendly_traceback&#45;&gt;custom_exception -->
<g id="edge2" class="edge"><title>friendly_traceback&#45;&gt;custom_exception</title><style>.edge>path:hover{stroke-width:8}</style>
<path fill="none" stroke="black" d="M88.3446,-144.055C83.392,-135.801 77.3325,-125.701 71.8343,-116.538"/>
<polygon fill="#4747c2" stroke="black" points="74.7313,-114.563 66.585,-107.789 68.7288,-118.165 74.7313,-114.563"/>
</g>
<!-- custom_exception_demo -->
<g id="node3" class="node"><title>custom_exception_demo</title><style>.edge>path:hover{stroke-width:8}</style>
<ellipse fill="#49ac49" stroke="black" cx="98.5116" cy="-18" rx="73.6658" ry="18"/>
<text text-anchor="middle" x="98.5116" y="-15.5" font-family="Helvetica,sans-Serif" font-size="10.00" fill="#000000">custom_exception_demo</text>
</g>
<!-- friendly_traceback&#45;&gt;custom_exception_demo -->
<g id="edge3" class="edge"><title>friendly_traceback&#45;&gt;custom_exception_demo</title><style>.edge>path:hover{stroke-width:8}</style>
<path fill="none" stroke="black" d="M108.466,-143.978C113.784,-133.888 119.784,-120.638 122.512,-108 125.888,-92.3602 125.888,-87.6398 122.512,-72 120.551,-62.9165 116.9,-53.5168 113.027,-45.2013"/>
<polygon fill="#4747c2" stroke="black" points="116.05,-43.4197 108.466,-36.0215 109.781,-46.5344 116.05,-43.4197"/>
</g>
<!-- custom_exception&#45;&gt;custom_exception_demo -->
<g id="edge1" class="edge"><title>custom_exception&#45;&gt;custom_exception_demo</title><style>.edge>path:hover{stroke-width:8}</style>
<path fill="none" stroke="black" d="M66.6787,-72.055C71.5584,-63.922 77.5128,-53.998 82.9461,-44.9426"/>
<polygon fill="#b34c4c" stroke="black" points="86.0027,-46.651 88.1465,-36.2753 80.0002,-43.0495 86.0027,-46.651"/>
</g>
</g>
</svg>
