<?xml version="1.0" encoding="UTF-8" standalone="no"?>
<!DOCTYPE svg PUBLIC "-//W3C//DTD SVG 1.1//EN"
 "http://www.w3.org/Graphics/SVG/1.1/DTD/svg11.dtd">
<!-- Generated by graphviz version 2.38.0 (20140413.2041)
 -->
<!-- Title: G Pages: 1 -->
<svg width="300pt" height="116pt"
 viewBox="0.00 0.00 299.66 116.00" xmlns="http://www.w3.org/2000/svg" xmlns:xlink="http://www.w3.org/1999/xlink">
<g id="graph0" class="graph" transform="scale(1 1) rotate(0) translate(4 112)">
<title>G</title><style>.edge>path:hover{stroke-width:8}</style>
<polygon fill="white" stroke="none" points="-4,4 -4,-112 295.661,-112 295.661,4 -4,4"/>
<!-- demo_gettext -->
<g id="node1" class="node"><title>demo_gettext</title><style>.edge>path:hover{stroke-width:8}</style>
<ellipse fill="#85b653" stroke="black" cx="44.7384" cy="-90" rx="44.978" ry="18"/>
<text text-anchor="middle" x="44.7384" y="-87.5" font-family="Helvetica,sans-Serif" font-size="10.00" fill="#000000">demo_gettext</text>
</g>
<!-- gui_demo -->
<g id="node3" class="node"><title>gui_demo</title><style>.edge>path:hover{stroke-width:8}</style>
<ellipse fill="#7546a4" stroke="black" cx="134.738" cy="-18" rx="34.9638" ry="18"/>
<text text-anchor="middle" x="134.738" y="-15.5" font-family="Helvetica,sans-Serif" font-size="10.00" fill="#ffffff">gui_demo</text>
</g>
<!-- demo_gettext&#45;&gt;gui_demo -->
<g id="edge2" class="edge"><title>demo_gettext&#45;&gt;gui_demo</title><style>.edge>path:hover{stroke-width:8}</style>
<path fill="none" stroke="black" d="M64.7123,-73.4647C77.4923,-63.5248 94.2209,-50.5136 108.123,-39.7012"/>
<polygon fill="#85b653" stroke="black" points="110.608,-42.2023 116.353,-33.3001 106.31,-36.6768 110.608,-42.2023"/>
</g>
<!-- _gui -->
<g id="node2" class="node"><title>_gui</title><style>.edge>path:hover{stroke-width:8}</style>
<ellipse fill="#b65353" stroke="black" cx="134.738" cy="-90" rx="27" ry="18"/>
<text text-anchor="middle" x="134.738" y="-87.5" font-family="Helvetica,sans-Serif" font-size="10.00" fill="#ffffff">_gui</text>
</g>
<!-- _gui&#45;&gt;gui_demo -->
<g id="edge1" class="edge"><title>_gui&#45;&gt;gui_demo</title><style>.edge>path:hover{stroke-width:8}</style>
<path fill="none" stroke="black" d="M134.738,-71.6966C134.738,-63.9827 134.738,-54.7125 134.738,-46.1124"/>
<polygon fill="#b65353" stroke="black" points="138.238,-46.1043 134.738,-36.1043 131.238,-46.1044 138.238,-46.1043"/>
</g>
<!-- friendly_traceback -->
<g id="node4" class="node"><title>friendly_traceback</title><style>.edge>path:hover{stroke-width:8}</style>
<ellipse fill="#53b6b6" stroke="black" cx="235.738" cy="-90" rx="55.8461" ry="18"/>
<text text-anchor="middle" x="235.738" y="-87.5" font-family="Helvetica,sans-Serif" font-size="10.00" fill="#000000">friendly_traceback</text>
</g>
<!-- friendly_traceback&#45;&gt;gui_demo -->
<g id="edge3" class="edge"><title>friendly_traceback&#45;&gt;gui_demo</title><style>.edge>path:hover{stroke-width:8}</style>
<path fill="none" stroke="black" d="M213.323,-73.4647C198.515,-63.2013 178.981,-49.6635 163.094,-38.6527"/>
<polygon fill="#53b6b6" stroke="black" points="164.909,-35.6521 154.697,-32.8324 160.922,-41.4054 164.909,-35.6521"/>
</g>
</g>
</svg>
